<?xml version="1.0" encoding="utf-8"?>
<!-- Generator: Adobe Illustrator 21.1.0, SVG Export Plug-In . SVG Version: 6.00 Build 0)  -->
<svg version="1.1" xmlns="http://www.w3.org/2000/svg" xmlns:xlink="http://www.w3.org/1999/xlink" x="0px" y="0px"
	 viewBox="0 0 60 60" style="enable-background:new 0 0 60 60;" xml:space="preserve">
<style type="text/css">
	.st0{fill:#666666;}
	.st1{fill-opacity:0.4;}
	.st2{fill:#FFFFFF;}
	.st3{opacity:0.4;}
</style>
<g id="git" xmlns:sketch="http://www.bohemiancoding.com/sketch/ns">
	<title></title>
	<desc></desc>
	<g id="slices" transform="translate(173.000000, 138.000000)">
	</g>
	<g>
		<g id="square-flat" transform="translate(173.000000, 138.000000)">
			<path id="square-60" class="st0" d="M-170-138h54c1.7,0,3,1.3,3,3v54c0,1.7-1.3,3-3,3h-54c-1.7,0-3-1.3-3-3v-54
				C-173-136.7-171.7-138-170-138z"/>
		</g>
		<g id="square-shadow" transform="translate(173.000000, 152.000000)">
			<path id="square-60_1_" class="st1" d="M-158-92h-12c-1.7,0-3-1.3-3-3v-11.5V-118l17.1-17.1h23.2l5.7,10.6l-2.9,16.4L-146-92
				H-158L-158-92z"/>
		</g>
		<g id="icon" transform="translate(182.000000, 150.000000)">
			<path id="github" class="st2" d="M-156.6-102.5c0-0.4,0-1.6,0-3.2c-5.1,1.1-6.2-2.5-6.2-2.5c-0.8-2.2-2.1-2.8-2.1-2.8
				c-1.7-1.2,0.1-1.2,0.1-1.2c1.9,0.1,2.8,2,2.8,2c1.6,2.9,4.3,2.1,5.4,1.6c0.2-1.2,0.6-2.1,1.2-2.5c-4.1-0.5-8.4-2.1-8.4-9.4
				c0-2.1,0.7-3.8,1.9-5.1c-0.2-0.5-0.8-2.4,0.2-5c0,0,1.6-0.5,5.1,1.9c1.5-0.4,3.1-0.6,4.6-0.6c1.6,0,3.1,0.2,4.6,0.6
				c3.5-2.4,5.1-1.9,5.1-1.9c1,2.6,0.4,4.5,0.2,5c1.2,1.3,1.9,3,1.9,5.1c0,7.3-4.3,8.9-8.4,9.3c0.7,0.6,1.3,1.7,1.3,3.5
				c0,2.5,0,4.6,0,5.2c0,0.5,0.3,1.1,1.3,0.9c7.3-2.5,12.6-9.6,12.6-18c0-10.5-8.3-18.9-18.5-18.9c-10.2,0-18.5,8.5-18.5,18.9
				c0,8.4,5.3,15.5,12.6,18C-156.9-101.4-156.6-102-156.6-102.5z"/>
		</g>
	</g>
</g>
<g id="linked">
	<g id="slices_1_" transform="translate(173.000000, 138.000000)">
	</g>
	<g>
		<g id="square-flat_4_" transform="translate(173.000000, 138.000000)">
			<path id="square-7_6_" class="st0" d="M-170-138h54c1.7,0,3,1.3,3,3v54c0,1.7-1.3,3-3,3h-54c-1.7,0-3-1.3-3-3v-54
				C-173-136.7-171.7-138-170-138z"/>
		</g>
		<g id="square-shadow_5_" transform="translate(173.000000, 152.000000)">
			<g>
				<g id="square-7_2_">
					<path class="st3" d="M-157.7-92H-170c-1.7,0-3-1.3-3-3v-11.7v-11.7l16.8-16.8l4.3,4.2l-4.6,4.3l3.5,6.4l5.5-6.4l4.6,3.7l9-1.4
						l3.4,7.1l1.6,8.8L-145.5-92H-157.7L-157.7-92z"/>
				</g>
			</g>
		</g>
		<g id="icon_4_" transform="translate(182.000000, 150.000000)">
			<path id="linkedin_1_" class="st2" d="M-160.1-106.2v-18.3h-5.7v18.3H-160.1z M-160.1-131c0-1.6-1.1-2.9-2.9-2.9
				c-1.8,0-2.9,1.2-2.9,2.9c0,1.6,1.1,2.9,2.9,2.9h0C-161.2-128.1-160.1-129.4-160.1-131z M-150.9-106.2v-10.4c0-0.6,0-1.1,0.2-1.5
				c0.4-1.1,1.5-2.3,3.2-2.3c2.2,0,3.7,1.3,3.7,3.8v10.4h5.7v-10.7c0-5.7-3.1-8.4-7.1-8.4c-3.3,0-4.8,1.9-5.6,3.1l0-2.4h-5.7
				c0.1,1.8,0,18.4,0,18.4H-150.9z"/>
		</g>
	</g>
	<g id="slices_3_" transform="translate(173.000000, 138.000000)">
	</g>
</g>
<g id="stack">
	<g>
		<g id="square-flat_2_" transform="translate(173.000000, 138.000000)">
			<path id="square-39" class="st0" d="M-170-138h54c1.7,0,3,1.3,3,3v54c0,1.7-1.3,3-3,3h-54c-1.7,0-3-1.3-3-3v-54
				C-173-136.7-171.7-138-170-138z"/>
		</g>
		<g id="square-shadow_2_" transform="translate(173.000000, 152.000000)">
			<path id="square-39_1_" class="st1" d="M-157.5-92H-170c-1.7,0-3-1.3-3-3v-6.3v-6.3l28.3-28.3l15.3,10.8l-4.8,5.6l3,2.3l2.3,9
				L-145-92H-157.5L-157.5-92z"/>
		</g>
		<g id="icon_2_" transform="translate(182.000000, 150.000000)">
			<path id="stackoverflow" class="st2" d="M-145.1-118l-15.4-3.2l-0.8,3.3l17.7,3.6l0.7-2.7l0.9,0.4l1.6-3.5l-16.9-8.1l-1.6,3.5
				L-145.1-118L-145.1-118z M-138.2-116.5v10.4h-27.7v-10.4h3.5v6.9h20.8v-6.9H-138.2z M-161.2-114.2h18.5v3.5h-18.5V-114.2z
				 M-138.2-123l-2.3,3l-15-11.7l1.7-2.2h1.7L-138.2-123z"/>
		</g>
	</g>
</g>
</svg>
